<svg width="186" height="113" viewBox="0 0 186 113" fill="none" xmlns="http://www.w3.org/2000/svg">
<path d="M37.4926 14.3108C39.0411 14.2125 40.5896 14.6056 41.9308 15.2812C43.1866 15.9568 44.2474 16.8413 45.1131 17.91C45.9788 18.9787 46.564 20.1457 47.1371 21.3126C47.6248 22.5779 48.0028 23.9414 48.1978 25.4032C48.2954 25.9928 48.3929 26.6684 48.3929 27.2581C48.3929 27.9337 48.2954 28.5233 48.1978 29.1989C48.0028 29.9728 47.8077 30.759 47.6126 31.4346C47.32 32.3068 46.942 33.1912 46.5518 34.3582C46.3567 34.9478 46.1617 35.4269 45.9666 35.9182C45.7715 36.4096 45.5764 36.8887 45.3813 37.2818C45.1862 37.6748 44.8936 38.2522 44.6132 38.7435C44.3328 39.2349 43.9426 39.9105 43.5524 40.5984C42.2966 42.5393 40.7481 44.2959 39.1143 45.8559C37.4682 47.416 35.6393 48.7795 33.7007 49.9465C31.7742 51.1135 29.7381 51.9856 27.6165 52.5753C25.495 53.2509 23.3613 53.5457 21.1422 53.5457C20.752 53.7422 20.374 53.8405 19.9839 53.8405C19.7888 53.9388 19.5937 53.9388 19.3986 53.8405L21.0446 56.0762C21.5324 56.7518 22.0079 57.538 22.6907 58.3119C23.3735 59.0857 23.9465 59.9702 24.6171 60.8424C25.4828 62.0093 26.3607 63.078 27.1288 64.245L28.9699 66.7755C29.4576 67.5494 30.2258 68.5321 31.0914 69.8956C31.9571 71.2591 32.9326 72.6227 33.8958 73.9862C34.859 75.3497 35.6393 76.6149 36.505 77.6836C37.3707 78.7524 37.7609 79.5385 37.956 79.7228C38.3461 80.3124 38.9192 81.1846 39.7971 82.2533L42.6989 86.1473C43.7597 87.6091 45.0155 89.2674 46.2714 91.0117C47.5272 92.7683 48.9782 94.4144 50.234 96.171C51.4899 97.9276 52.8433 99.4754 54.0991 101.134C55.355 102.792 56.6108 104.156 57.6716 105.421L58.1593 106.489H59.025C59.3176 106.489 59.5127 106.391 59.6956 106.195C60.0858 105.802 60.3662 105.421 60.6588 105.028C60.8539 104.635 61.049 104.254 61.049 103.762C61.1465 103.087 61.3416 102.399 61.5367 101.723C61.6342 101.429 61.8293 101.048 61.9269 100.753C61.9269 100.655 62.1219 100.655 62.4146 100.655H65.414V103.959C65.2189 104.831 64.8287 105.716 64.4508 106.588C63.963 107.46 63.4875 108.148 62.8047 108.823L62.2195 109.597L61.9269 109.892C61.8293 110.285 61.7318 110.568 61.4391 110.863C61.2441 111.256 60.9514 111.538 60.671 111.833C60.2808 112.226 59.8053 112.423 59.3176 112.705C58.7324 112.902 58.1593 113 57.5741 113C56.9888 113 56.5133 113 56.2207 113C55.928 113 55.6354 112.803 55.4525 112.607C53.8065 112.214 52.3556 111.538 51.0144 110.568C49.5634 109.597 47.7345 108.234 45.6008 106.575C44.8327 105.986 44.1499 105.31 43.5768 104.721C43.0037 104.131 42.4185 103.554 41.8332 102.866C41.248 102.19 40.6749 101.502 39.9921 100.63C39.3093 99.7579 38.4437 98.7752 37.4804 97.6082L35.3589 94.9794C34.6883 94.2055 34.1031 93.3211 33.4325 92.4489C32.7619 91.5768 32.1766 90.5941 31.4085 89.5254C30.6403 88.4567 29.86 87.1914 28.8968 85.6314C28.1286 84.6609 27.3483 83.494 26.4826 82.2287C25.6169 80.9635 24.9341 79.6982 24.166 78.3347C23.3978 76.9712 22.715 75.6077 22.0444 74.2441C21.3738 72.8806 20.7886 71.6154 20.2033 70.3501C20.1058 70.0553 20.0083 69.7605 19.9107 69.5762C19.8132 69.2814 19.7156 69.0849 19.6181 68.8024L19.3255 68.1267C19.3255 67.9302 19.3255 67.9302 19.3255 68.225C19.3255 68.5198 19.1304 69.1954 18.9353 70.3624C18.9353 71.1363 18.9353 71.9225 18.8378 72.8929C18.7402 73.8633 18.7402 74.8338 18.6427 75.8165C18.5451 76.7869 18.4476 77.7573 18.3501 78.7401C18.2525 79.7105 18.155 80.4967 18.0574 81.074C17.7648 82.6341 17.5697 83.9976 17.2893 85.2628C17.0942 86.4298 16.8016 87.4985 16.3261 88.5672C15.9359 89.5377 15.1678 90.4221 14.107 90.8029C13.9119 90.9012 13.6193 90.9994 13.3388 91.196L12.3756 91.5891C12.083 91.6873 11.7904 91.7856 11.5099 91.7856C11.3149 91.7856 11.1198 91.7856 11.1198 91.6873L11.4124 91.0117C11.5099 90.8152 11.6075 90.5204 11.705 90.3361C11.8026 90.0413 11.9001 89.7465 11.9976 89.464V89.1691L11.8026 89.3657C11.705 89.4639 11.705 89.6605 11.705 89.7588C11.705 89.857 11.705 89.857 11.6075 89.857C11.3149 90.0536 11.0222 90.1518 10.6443 90.2501C10.3516 90.2501 10.1565 90.2501 9.97365 90.2501C9.79076 90.2501 9.58348 90.1519 9.48594 89.9553C9.48594 89.5622 9.48594 89.1814 9.48594 88.7883C9.48594 88.5918 9.48594 88.1987 9.48594 87.8179C9.48594 87.2283 9.29086 86.7492 9.09577 86.2578C9.09577 85.4839 8.99823 84.317 8.80315 82.5604C8.60807 80.8038 8.41298 78.4698 8.2179 75.4603C8.2179 74.0967 8.12036 72.6349 8.02282 71.2714C7.92527 69.9079 7.82773 68.6427 7.82773 67.2791C7.73019 66.407 7.63265 65.5225 7.63265 64.4538C7.53511 63.3851 7.5351 62.2182 7.43756 61.0512C7.34002 59.8842 7.34002 58.7172 7.24248 57.452C7.14494 56.1867 7.14494 55.118 7.0474 53.9511V51.9119L6.18171 51.138C4.82832 50.5484 3.57247 49.7745 2.41416 48.9024C1.54848 48.3127 0.768142 47.4406 0.487709 46.4701C0.292625 46.4701 0.195086 46.1753 0.097544 45.7945C2.2311e-06 45.6963 0 45.4997 0 45.3032L0.487709 45.1066C0.682793 45.0084 0.877878 45.0083 1.07296 44.9101L3.09696 44.2345L3.96264 43.9397L4.3528 44.2345L5.12094 44.8241C5.41357 45.0206 5.7062 45.2172 6.08417 45.3155L6.94985 45.7085V42.4042C6.94985 41.3355 6.94986 40.1685 7.0474 38.7067C7.14494 37.2449 7.14494 35.8814 7.24248 34.4196C7.34002 32.9578 7.34002 31.6926 7.43756 30.5256C7.5351 29.3586 7.53511 28.4864 7.53511 27.8968C7.53511 27.3072 7.53511 26.7298 7.63265 25.8577C7.73019 24.9855 7.82773 24.1011 7.92527 23.1306C8.02281 22.1602 8.12036 21.374 8.2179 20.5019C8.31544 19.6297 8.31544 19.2366 8.31544 18.9418V18.1679H9.57129C9.86391 17.9714 10.1565 17.8731 10.437 17.8731C10.7296 17.8731 11.0222 17.8731 11.2051 17.8731L12.0708 17.48L12.5585 19.3349C12.9487 20.2071 13.3267 21.0915 13.6193 21.8654C13.9119 22.6393 14.2899 23.5237 14.68 24.4942C14.68 24.789 14.7776 24.9855 14.8751 25.2681L15.0702 25.5629L15.3628 25.3663L15.9481 24.875C16.2407 24.4819 16.6187 24.1011 17.0089 23.8063C17.4966 23.3149 18.0696 22.8358 18.6549 22.3445C19.2401 21.8531 19.8132 21.374 20.3009 20.8827C20.7886 20.3913 21.2641 20.0105 21.5567 19.6174C22.4224 19.0278 23.3003 18.5487 23.9709 18.1557C24.6415 17.7626 25.812 17.2835 27.1532 16.6939C28.0189 16.3008 28.6041 16.0182 29.0797 15.8217C29.8478 15.5269 30.6281 15.3303 31.3963 15.2321C32.457 14.9373 33.5178 14.6424 34.6761 14.5565C35.5418 14.4582 36.3221 14.4582 36.8952 14.4582H37.4804V14.3108H37.4926ZM37.4926 20.2562C36.6269 20.2562 35.7491 20.3545 34.9809 20.551C33.8226 20.8458 32.6643 21.2266 31.506 21.718C28.9943 22.6884 26.6777 23.9537 24.3611 25.4155C22.2395 26.6807 20.3009 28.2408 18.5695 29.8868L17.399 30.9555C17.1064 31.2503 16.9113 31.4469 16.8138 31.5451C16.6187 31.6434 16.5211 31.9382 16.5211 32.1348L16.7162 33.1052C16.7162 33.4 16.8138 33.6948 16.9113 33.9774C17.0089 34.3705 17.0089 34.653 17.0089 35.0461C17.3015 36.7044 17.5941 38.3505 17.8745 40.1071C18.1672 41.7654 18.3622 43.4114 18.3622 45.168L18.7524 47.7968H20.9715C21.4592 47.7968 21.9347 47.6985 22.4224 47.6003C22.8126 47.502 23.1906 47.4037 23.5807 47.4037C24.544 47.2072 25.5072 46.9124 26.4826 46.6298C27.4458 46.335 28.3237 45.9542 29.1894 45.4629C29.5796 45.0698 30.2502 44.5907 31.1158 44.0011C31.884 43.5097 32.4692 42.9324 33.0423 42.2445C33.7129 41.4706 34.3957 40.5861 35.2614 39.4192C36.127 38.2522 37.0049 36.9869 37.8706 35.7217C38.7363 34.4564 39.5166 33.2895 40.1872 32.0242C40.7725 31.1521 41.248 30.1694 41.7357 29.1989C41.9308 28.0319 42.1259 26.865 42.2234 25.5014C42.4185 24.4327 42.2234 23.364 41.7357 22.4796C41.7357 22.0865 41.5406 21.7057 41.1504 21.4109C40.8578 21.1161 40.3823 20.8213 39.9921 20.637C39.6995 20.5387 39.3215 20.3422 39.0289 20.1457C38.5534 20.0597 38.1754 20.0597 37.4926 20.2562Z" fill="#1820AD"/>
<path d="M54.404 91.3065C53.4407 90.7169 52.6604 89.8447 52.38 88.6778C51.8923 87.216 51.5143 85.7542 51.3192 84.2064C51.1241 82.6463 50.929 81.0003 50.8315 79.4402C50.7339 77.8802 50.7339 76.7132 50.7339 75.9393C50.7339 73.4088 50.7339 70.8783 50.8315 68.1513C50.929 65.5225 50.929 62.6972 51.0266 59.7859C51.1241 56.8623 51.3192 53.2632 51.6118 48.9883C51.9044 44.7135 52.2824 39.456 52.8677 33.4123C53.9284 21.632 54.8917 15.8954 55.7695 16.0919C57.6106 16.3868 59.342 16.2885 61.1831 15.8954C63.7923 15.404 66.109 15.1215 68.0476 14.925C69.9741 14.7284 71.9127 14.5319 73.6563 14.5319C75.3998 14.5319 76.7532 14.4336 77.5214 14.4336L79.2649 14.5319C79.2649 14.8267 79.1674 15.1215 79.1674 15.404C79.0698 15.7971 78.9723 16.1779 78.8748 16.6693C78.7772 17.0624 78.5821 17.4432 78.4846 17.8363C78.387 18.1311 78.192 18.3276 77.9969 18.5119C76.0704 18.905 74.0342 19.1875 72.1078 19.2858C70.1813 19.384 68.1452 19.384 66.2187 19.384C66.2187 24.5433 65.9261 29.6043 65.2555 34.7635C64.6702 39.7262 64.0972 44.689 63.5119 49.9465C64.2801 49.6517 65.1579 49.5534 66.0236 49.5534C66.8893 49.5534 67.7672 49.5534 68.5353 49.5534L73.7538 49.6517V50.8186C73.6563 51.31 73.4612 51.6908 73.0832 52.0839C72.7906 52.477 72.498 52.8578 72.12 53.2509C69.3157 53.8405 66.5113 54.0248 63.7192 53.9265L63.1339 54.4178C62.8413 59.4788 62.4633 64.6381 61.8781 69.7973C61.2928 74.9566 61.0124 80.0176 61.0124 85.1768C61.0124 85.4717 61.0124 85.7665 61.0124 86.1473C61.0124 86.4421 61.11 86.7369 61.2075 87.0194C63.7192 86.6263 66.1334 86.2455 68.5475 85.8525C70.9617 85.4594 73.4734 85.3611 75.8875 85.3611C76.3752 85.3611 76.8508 85.3611 77.3385 85.4594C77.436 85.5576 77.5336 85.5576 77.5336 85.6559L76.1802 89.1568C75.6924 89.4517 75.1194 89.5499 74.5341 89.5499C73.6685 89.6482 72.6077 89.8447 71.4372 89.943C70.2789 90.0413 69.023 90.2378 67.6696 90.3361C66.3162 90.4344 65.0604 90.5326 63.9021 90.7292C62.7438 90.9257 61.683 91.024 60.9027 91.1223C60.415 91.1223 59.8419 91.3188 59.4517 91.5154L54.404 91.3065Z" fill="#1820AD"/>
<path d="M85.41 94.1196C83.764 91.7856 82.7032 89.1569 82.313 86.3316C81.9229 83.5062 81.7278 80.6809 81.7278 77.8679C81.7278 73.4825 81.9229 69.2077 82.3984 64.8224C82.7886 60.437 83.4592 56.1622 84.1419 51.8751C84.9101 47.588 85.788 43.3132 86.6536 39.1244C87.6169 34.8373 88.5801 30.6607 89.5555 26.4719C89.8481 26.3736 90.2261 26.1771 90.7138 26.0788C91.104 25.8823 91.482 25.784 91.9697 25.784L93.4206 26.0788C94.3838 26.951 95.0666 28.0197 95.5421 29.1989C96.3103 30.759 97.0906 32.6016 97.8588 34.653C98.6269 36.6921 99.4072 39.0384 100.175 41.4706C100.944 43.9028 101.626 46.2368 102.297 48.4724C102.968 50.7081 103.553 52.7595 104.138 54.6021C104.723 56.4447 105.199 57.8082 105.491 58.7909L108.393 67.2546L108.979 69.1095L109.174 69.5026V69.1095L109.369 67.4511C109.856 62.8815 110.137 58.3979 110.234 53.9265C110.332 49.3569 110.625 44.775 111.198 40.3036C111.393 39.0384 111.588 37.2818 111.966 35.0461C112.356 32.8104 112.734 30.3782 113.222 27.6512C113.709 24.9241 114.282 22.1971 114.868 19.2858C115.453 16.3622 116.123 13.6352 116.709 11.1047C117.294 8.5742 117.965 6.24025 118.635 4.2871C119.123 2.72704 119.696 1.26525 120.562 0C121.915 0 123.366 -1.50097e-06 124.817 0.09827C126.17 0.196542 127.621 0.393083 128.975 0.687898C128.78 2.72703 128.487 5.25753 128.109 8.27938C127.719 11.3012 127.341 14.6056 126.853 18.3031C126.365 22.0005 125.792 25.8945 125.207 29.9851C124.622 34.0757 123.951 38.2522 123.281 42.441C122.61 46.6298 121.927 50.8064 121.257 54.8969C120.586 58.9875 119.903 62.8815 119.135 66.4807C118.367 70.0799 117.782 73.4825 117.111 76.4061C116.44 79.3297 115.855 81.9585 115.27 83.9976C115.075 84.5872 114.782 85.2628 114.404 85.7542C114.112 86.1473 113.734 86.3438 113.246 86.4298C112.758 86.5281 112.185 86.5281 111.698 86.4298C111.112 86.3315 110.442 86.3316 109.674 86.3316C109.674 86.2333 109.478 85.6559 109.088 84.3907C108.698 83.1254 108.125 81.5654 107.54 79.7228C106.955 77.8679 106.186 75.7305 105.418 73.4948C104.65 71.2592 103.87 69.1095 103.199 67.0703L101.358 61.8128C100.87 60.2527 100.492 59.2823 100.395 58.8892C99.5292 56.1622 98.6513 53.4351 97.7856 50.8064C96.9199 48.0793 96.2371 45.3523 95.7616 42.6253L95.3714 40.3896C95.3714 40.1931 95.3714 40.0948 95.2739 40.0948V40.7704C95.2739 43.694 95.0788 46.6053 94.7862 49.5289C94.4936 52.8332 94.0181 56.2482 93.5303 59.6508C93.0426 63.0535 92.4696 66.4684 91.9819 69.9693C91.4942 73.4703 91.0186 76.8852 90.6285 80.2878C90.2383 83.5922 90.0432 87.0072 90.0432 90.4098H90.7138L91.3844 90.6064C91.677 90.7046 91.8721 90.8029 92.1526 90.9012C92.1526 91.6751 91.9575 92.363 91.482 92.9403C90.9943 93.5299 90.5187 94.1073 89.9335 94.5986H88.7752C88.2875 94.5986 87.7144 94.5986 87.2267 94.5986C86.4708 94.5127 85.8977 94.4144 85.41 94.1196Z" fill="#1820AD"/>
<path d="M158.054 106.87C156.994 106.87 155.933 106.281 155.445 105.31C154.774 104.143 154.384 102.878 154.092 101.613C153.799 100.249 153.604 98.7875 153.604 97.3257C153.604 95.9622 153.506 94.7952 153.506 94.1196C153.506 92.9526 153.702 91.6873 153.897 90.5204C154.092 89.0586 154.482 87.4985 154.762 85.9507C155.055 84.3907 155.53 82.9289 155.921 81.4794C156.311 80.0176 156.689 78.9489 156.981 77.9785C156.018 79.6368 155.14 81.2828 154.275 82.8429C153.506 84.403 152.433 85.7665 151.275 87.13C150.117 88.3953 148.763 89.3657 147.313 90.1519C145.569 90.9257 143.643 91.3188 141.619 91.3188C138.912 91.4171 136.205 90.4467 134.181 88.5918C132.255 86.6509 130.804 84.403 129.828 81.8725C128.767 79.1454 128.085 76.3201 127.804 73.4088C127.512 70.7801 127.316 68.1513 127.316 65.5226C127.414 62.5007 127.609 59.5894 128.182 56.6658C129.438 48.8778 131.56 41.1881 134.559 33.8914C136.01 30.2922 137.839 26.7913 140.07 23.4746C141.997 20.551 144.325 18.0205 147.117 15.9814C149.532 14.1265 152.531 13.0578 155.616 13.0578C156.384 13.0578 157.067 13.1561 157.835 13.4509C158.603 13.6475 159.286 13.9423 159.761 14.5196V15.1952C158.408 15.5883 157.055 15.8709 155.604 16.1657C153.677 18.3031 152.031 20.7353 150.775 23.3641C149.227 26.4842 147.971 29.7886 147.008 33.0929C145.849 36.7904 144.886 40.4879 144.106 44.2836C143.338 48.1776 142.655 52.0716 142.082 55.7691C141.594 59.5648 141.216 63.164 141.021 66.5667C140.728 69.9693 140.631 72.8929 140.631 75.4234V78.2487C140.631 79.514 140.728 80.7792 140.924 82.0445C141.119 83.2114 141.411 84.3784 141.887 85.4471C142.179 86.3193 142.948 86.9089 143.911 86.9089C144.776 86.5158 145.557 85.9385 146.032 85.054C146.898 83.6905 147.581 82.327 148.251 80.9635C149.02 79.3051 149.702 77.5608 150.373 75.6077C151.044 73.6668 151.629 71.9102 152.214 70.0553C152.799 68.2005 153.275 66.7509 153.665 65.2892C154.055 63.8274 154.433 62.8569 154.628 62.2673L155.018 62.0708C154.153 61.8742 153.177 61.7759 152.214 61.7759C151.251 61.7759 150.288 61.7759 149.41 61.6777L148.824 60.609L149.593 58.275C150.653 57.9802 151.812 57.7837 152.97 57.6854C154.226 57.5871 155.482 57.4889 156.738 57.4889C157.993 57.4889 159.249 57.4889 160.505 57.4889H163.98C165.138 57.3906 166.297 57.6854 167.162 58.4593C167.833 59.4297 168.126 60.4984 168.028 61.6654C168.028 65.068 167.735 68.483 167.162 71.8856C166.577 75.3865 165.906 78.8875 165.138 82.4007C164.37 85.9016 163.59 89.5008 162.724 93.014C161.858 96.5272 161.176 100.016 160.7 103.333L162.151 103.726L161.285 105.58C160.798 105.974 160.322 106.256 159.737 106.453C159.31 106.772 158.737 106.87 158.054 106.87Z" fill="#1820AD"/>
<path d="M171.1 90.1273C170.332 90.1273 169.942 89.8325 169.845 89.2551C169.747 88.6655 169.747 88.0882 169.747 87.5968C169.747 86.9212 169.845 86.2333 170.137 85.5577C170.332 85.0663 170.722 84.3907 171.1 83.7028C171.588 83.408 172.356 83.0272 173.124 82.5358C173.795 82.1427 174.478 81.8602 175.246 81.7619C175.636 81.7619 176.112 81.9585 176.404 82.2533C176.794 82.6464 177.075 83.0272 177.27 83.5185C177.465 84.0099 177.66 84.489 177.855 84.9803C177.953 85.3734 178.05 85.7542 178.05 86.2456C178.148 87.4125 177.465 88.4813 176.502 88.9726C176.112 89.6482 175.539 90.1396 174.953 90.5327C174.283 90.9257 173.6 91.1223 172.832 91.1223C172.442 91.1223 172.161 91.024 171.771 90.9257C171.393 90.7169 171.1 90.5204 171.1 90.1273ZM173.515 72.9052V58.5944C173.515 57.9188 173.71 56.457 174.002 54.0248C174.295 51.6908 174.77 48.8655 175.258 45.6594C175.746 42.4533 176.319 39.0384 177.002 35.5374C177.685 32.0365 178.258 28.6216 178.928 25.612C179.599 22.5902 180.184 20.0597 180.769 17.9223C181.355 15.7849 181.928 14.7162 182.318 14.5196C182.22 14.1265 182.318 13.844 182.513 13.844C182.708 13.844 182.903 13.844 183.098 13.844C183.293 13.844 183.391 13.9423 183.488 14.1388C183.586 14.2371 183.586 14.4336 183.488 14.6302H184.744C185.512 15.6989 186 16.9641 186 18.3276C186 19.6912 186 21.0547 186 22.3199C186 30.2062 185.415 38.1785 184.256 45.9665C183.098 53.7545 181.355 61.5426 179.038 69.0358C178.843 69.6254 178.648 70.2027 178.55 70.7924C178.453 71.1855 178.355 71.6645 178.16 72.0576C177.965 72.3524 177.672 72.6472 177.392 72.8315C176.807 73.028 176.234 73.1263 175.648 73.028L173.515 72.9052Z" fill="#1820AD"/>
</svg>
